<svg width="195" height="30" viewBox="0 0 195 30" fill="none" xmlns="http://www.w3.org/2000/svg">
<path d="M182.831 29.4886V7.67046H186.936V11.1364H187.163C187.561 9.96212 188.262 9.03883 189.266 8.36648C190.279 7.68466 191.425 7.34375 192.703 7.34375C192.968 7.34375 193.281 7.35322 193.641 7.37216C194.01 7.3911 194.299 7.41477 194.507 7.44318V11.5057C194.337 11.4583 194.034 11.4063 193.598 11.3494C193.162 11.2831 192.727 11.25 192.291 11.25C191.287 11.25 190.392 11.4631 189.606 11.8892C188.83 12.3059 188.214 12.8883 187.76 13.6364C187.305 14.375 187.078 15.2178 187.078 16.1648V29.4886H182.831Z" fill="#926000"/>
<path d="M171.558 29.929C169.408 29.929 167.557 29.4697 166.004 28.5511C164.46 27.6231 163.267 26.321 162.424 24.6449C161.591 22.9593 161.174 20.9848 161.174 18.7216C161.174 16.4867 161.591 14.517 162.424 12.8125C163.267 11.1079 164.441 9.77745 165.947 8.82101C167.462 7.86457 169.233 7.38635 171.259 7.38635C172.491 7.38635 173.684 7.58995 174.839 7.99715C175.994 8.40434 177.031 9.04355 177.95 9.91476C178.868 10.786 179.593 11.9176 180.123 13.3096C180.653 14.6922 180.919 16.3731 180.919 18.3523V19.8579H163.575V16.6761H176.757C176.757 15.5587 176.529 14.5691 176.075 13.7074C175.62 12.8362 174.981 12.1496 174.157 11.6477C173.343 11.1458 172.386 10.8949 171.288 10.8949C170.095 10.8949 169.053 11.1884 168.163 11.7756C167.282 12.3532 166.6 13.1108 166.117 14.0483C165.644 14.9763 165.407 15.9848 165.407 17.0739V19.5596C165.407 21.018 165.663 22.2585 166.174 23.2812C166.695 24.304 167.42 25.0852 168.348 25.625C169.276 26.1553 170.36 26.4204 171.6 26.4204C172.405 26.4204 173.139 26.3068 173.802 26.0795C174.465 25.8428 175.038 25.4924 175.521 25.0284C176.004 24.5644 176.373 23.9915 176.629 23.3096L180.649 24.0341C180.327 25.2178 179.749 26.2547 178.916 27.1449C178.092 28.0256 177.055 28.7121 175.805 29.2045C174.564 29.6875 173.149 29.929 171.558 29.929Z" fill="#926000"/>
<path d="M148.083 29.9148C146.322 29.9148 144.75 29.4649 143.367 28.5653C141.994 27.6562 140.914 26.3636 140.128 24.6875C139.352 23.0019 138.964 20.9801 138.964 18.6221C138.964 16.2642 139.357 14.2471 140.143 12.571C140.938 10.8949 142.027 9.61172 143.41 8.72157C144.792 7.83142 146.359 7.38634 148.111 7.38634C149.466 7.38634 150.555 7.61361 151.378 8.06816C152.212 8.51323 152.856 9.03407 153.31 9.63066C153.774 10.2272 154.134 10.7528 154.39 11.2074H154.645V0.397705H158.893V29.4886H154.745V26.0937H154.39C154.134 26.5577 153.765 27.088 153.282 27.6846C152.808 28.2812 152.155 28.8021 151.322 29.2471C150.488 29.6922 149.409 29.9148 148.083 29.9148ZM149.02 26.2926C150.242 26.2926 151.274 25.9706 152.117 25.3267C152.969 24.6733 153.613 23.7689 154.049 22.6136C154.494 21.4583 154.716 20.1136 154.716 18.5795C154.716 17.0644 154.499 15.7386 154.063 14.6023C153.627 13.4659 152.988 12.5805 152.145 11.946C151.303 11.3115 150.261 10.9943 149.02 10.9943C147.742 10.9943 146.677 11.3257 145.824 11.9886C144.972 12.6515 144.328 13.5558 143.893 14.7017C143.466 15.8475 143.253 17.1401 143.253 18.5795C143.253 20.0379 143.471 21.3494 143.907 22.5142C144.342 23.679 144.986 24.6023 145.839 25.2841C146.7 25.9564 147.761 26.2926 149.02 26.2926Z" fill="#926000"/>
<path d="M127.804 29.929C125.759 29.929 123.974 29.4602 122.449 28.5227C120.924 27.5852 119.741 26.2737 118.898 24.5881C118.055 22.9024 117.634 20.9328 117.634 18.679C117.634 16.4157 118.055 14.4365 118.898 12.7415C119.741 11.0464 120.924 9.7301 122.449 8.7926C123.974 7.8551 125.759 7.38635 127.804 7.38635C129.85 7.38635 131.635 7.8551 133.159 8.7926C134.684 9.7301 135.868 11.0464 136.71 12.7415C137.553 14.4365 137.975 16.4157 137.975 18.679C137.975 20.9328 137.553 22.9024 136.71 24.5881C135.868 26.2737 134.684 27.5852 133.159 28.5227C131.635 29.4602 129.85 29.929 127.804 29.929ZM127.818 26.3636C129.144 26.3636 130.243 26.0132 131.114 25.3125C131.985 24.6117 132.629 23.679 133.046 22.5142C133.472 21.3494 133.685 20.0663 133.685 18.6648C133.685 17.2727 133.472 15.9943 133.046 14.8295C132.629 13.6553 131.985 12.7131 131.114 12.0028C130.243 11.2926 129.144 10.9375 127.818 10.9375C126.483 10.9375 125.375 11.2926 124.494 12.0028C123.623 12.7131 122.975 13.6553 122.548 14.8295C122.132 15.9943 121.923 17.2727 121.923 18.6648C121.923 20.0663 122.132 21.3494 122.548 22.5142C122.975 23.679 123.623 24.6117 124.494 25.3125C125.375 26.0132 126.483 26.3636 127.818 26.3636Z" fill="#926000"/>
<path d="M106.503 29.929C104.457 29.929 102.672 29.4602 101.147 28.5227C99.6228 27.5852 98.4391 26.2737 97.5963 24.5881C96.7535 22.9024 96.3321 20.9328 96.3321 18.679C96.3321 16.4157 96.7535 14.4365 97.5963 12.7415C98.4391 11.0464 99.6228 9.7301 101.147 8.7926C102.672 7.8551 104.457 7.38635 106.503 7.38635C108.548 7.38635 110.333 7.8551 111.858 8.7926C113.382 9.7301 114.566 11.0464 115.409 12.7415C116.252 14.4365 116.673 16.4157 116.673 18.679C116.673 20.9328 116.252 22.9024 115.409 24.5881C114.566 26.2737 113.382 27.5852 111.858 28.5227C110.333 29.4602 108.548 29.929 106.503 29.929ZM106.517 26.3636C107.843 26.3636 108.941 26.0132 109.812 25.3125C110.683 24.6117 111.327 23.679 111.744 22.5142C112.17 21.3494 112.383 20.0663 112.383 18.6648C112.383 17.2727 112.17 15.9943 111.744 14.8295C111.327 13.6553 110.683 12.7131 109.812 12.0028C108.941 11.2926 107.843 10.9375 106.517 10.9375C105.182 10.9375 104.074 11.2926 103.193 12.0028C102.322 12.7131 101.673 13.6553 101.247 14.8295C100.83 15.9943 100.622 17.2727 100.622 18.6648C100.622 20.0663 100.83 21.3494 101.247 22.5142C101.673 23.679 102.322 24.6117 103.193 25.3125C104.074 26.0132 105.182 26.3636 106.517 26.3636Z" fill="#926000"/>
<path d="M78.6172 29.4886V0.397705H96.657V4.17612H83.0064V13.0398H95.3643V16.804H83.0064V29.4886H78.6172Z" fill="#926000"/>
<path d="M65.2293 29.7586C64.4528 29.7586 63.7851 29.4839 63.2264 28.9347C62.6677 28.376 62.3884 27.7036 62.3884 26.9176C62.3884 26.1411 62.6677 25.4783 63.2264 24.929C63.7851 24.3703 64.4528 24.0909 65.2293 24.0909C66.0058 24.0909 66.6734 24.3703 67.2321 24.929C67.7908 25.4783 68.0702 26.1411 68.0702 26.9176C68.0702 27.4385 67.9376 27.9167 67.6725 28.3523C67.4168 28.7784 67.0759 29.1194 66.6497 29.375C66.2236 29.6307 65.7501 29.7586 65.2293 29.7586Z" fill="#926000"/>
<path d="M55.2984 9.58807C55.0238 8.72633 54.6545 7.95455 54.1905 7.27273C53.7359 6.58144 53.1914 5.99432 52.557 5.51137C51.9225 5.01894 51.1981 4.64489 50.3837 4.38921C49.5787 4.13352 48.6933 4.00568 47.7274 4.00568C46.0892 4.00568 44.6119 4.42708 43.2956 5.26989C41.9793 6.11269 40.9376 7.34849 40.1706 8.97727C39.413 10.5966 39.0342 12.5805 39.0342 14.929C39.0342 17.2869 39.4177 19.2803 40.1848 20.9091C40.9518 22.5379 42.003 23.7737 43.3382 24.6165C44.6734 25.4593 46.1933 25.8807 47.8979 25.8807C49.4793 25.8807 50.8571 25.5587 52.0314 24.9148C53.2151 24.2708 54.1289 23.3617 54.7729 22.1875C55.4263 21.0038 55.753 19.6117 55.753 18.0114L56.8893 18.2244H48.5655V14.6023H60.0001V17.9119C60.0001 20.3551 59.4793 22.4763 58.4376 24.2756C57.4054 26.0653 55.9755 27.4479 54.1479 28.4233C52.3297 29.3987 50.2464 29.8864 47.8979 29.8864C45.2653 29.8864 42.9547 29.2803 40.966 28.0682C38.9869 26.8561 37.4433 25.1373 36.3354 22.9119C35.2274 20.6771 34.6734 18.0256 34.6734 14.9574C34.6734 12.6373 34.9954 10.554 35.6393 8.70739C36.2833 6.8608 37.1876 5.29356 38.3524 4.00568C39.5267 2.70833 40.9045 1.71875 42.4859 1.03693C44.0768 0.345645 45.8145 0 47.699 0C49.271 0 50.734 0.232008 52.0882 0.696023C53.4518 1.16004 54.664 1.81818 55.7246 2.67046C56.7946 3.52273 57.6801 4.53599 58.3808 5.71023C59.0816 6.875 59.5551 8.16762 59.8013 9.58807H55.2984Z" fill="#926000"/>
<path d="M29.5402 29.7586C28.7637 29.7586 28.0961 29.4839 27.5373 28.9347C26.9786 28.376 26.6993 27.7036 26.6993 26.9176C26.6993 26.1411 26.9786 25.4783 27.5373 24.929C28.0961 24.3703 28.7637 24.0909 29.5402 24.0909C30.3167 24.0909 30.9843 24.3703 31.543 24.929C32.1017 25.4783 32.3811 26.1411 32.3811 26.9176C32.3811 27.4385 32.2485 27.9167 31.9834 28.3523C31.7277 28.7784 31.3868 29.1194 30.9606 29.375C30.5345 29.6307 30.061 29.7586 29.5402 29.7586Z" fill="#926000"/>
<path d="M23.4801 0.397705V29.4886H19.446L4.65909 8.15339H4.3892V29.4886H0V0.397705H4.0625L18.8636 21.7613H19.1335V0.397705H23.4801Z" fill="#926000"/>
</svg>

